<?xml version="1.0" encoding="UTF-8"?>
<svg width="56px" height="64px" viewBox="0 0 56 64" version="1.1" xmlns="http://www.w3.org/2000/svg" xmlns:xlink="http://www.w3.org/1999/xlink">
    <!-- Generator: Sketch 47.1 (45422) - http://www.bohemiancoding.com/sketch -->
    <title>保障范围</title>
    <desc>Created with Sketch.</desc>
    <defs></defs>
    <g id="Page-1" stroke="none" stroke-width="1" fill="none" fill-rule="evenodd">
        <g id="延保首页" transform="translate(-346.000000, -1358.000000)">
            <g id="保障范围" transform="translate(346.000000, 1358.000000)">
                <path d="M6,8 C8.23302539,8.21829666 10.6630424,7.88260861 13.2900509,6.99293586 C21.150227,4.33097862 25.0484027,4.1992123e-16 28.0487052,0 C31.0490077,0 33.0357431,3.36100271 41.0288835,6.08300812 C43.2782353,6.84900837 47.1009897,7.68540385 52.497147,8.59219455 L52.4971493,8.59218109 C53.941897,8.83496197 55,10.0857083 55,11.550713 L55,20.0026039 C55.2669278,33.6365083 53.8860555,42.8397584 50.8573832,47.6123542 C46.3143746,54.7712478 34.0123957,61 33.9864867,61 C31.9311056,61 25.687805,57.6784107 15.2565849,51.0352321 L15.2565857,51.0352308 C9.49100477,47.3633896 6,41.0012813 6,34.1657607 L6,27.9993075 L6,8 Z" id="Rectangle-53" fill="#FF8762"></path>
                <path d="M2.66333118,9.57154924 C1.70258646,9.73561807 1.00000936,10.5683439 1,11.5429949 L1,33.299757 C1,42.2939048 5.64843858,50.6492676 13.2906822,55.3917145 C21.4001491,60.4241008 26.4543034,63 27.9864867,63 C29.6083097,63 34.6700295,60.4379359 42.737882,55.4169085 C50.3638287,50.6709011 55.0000014,42.3248846 55,33.3427001 L55,11.550713 C55,10.5740409 54.2945978,9.74021304 53.3314268,9.57836736 C47.8857527,8.66325567 44.0199154,7.81743392 41.7065204,7.02962419 C40.4686403,6.60807319 39.2960341,6.15389548 38.1636382,5.66353604 C36.9062075,5.11903299 35.736395,4.54807974 34.5017475,3.89154975 C33.7813612,3.50848072 31.5909624,2.2923524 31.7311251,2.36901761 C29.9054882,1.37044353 28.9619862,1.00546594 28.0669858,1.0000553 C28.0578423,1.00000922 28.0578423,1.00000922 28.0487052,1 C28.0031828,1 27.9574645,1.00101793 27.9114931,1.00305294 C27.0372968,1.04175093 26.1217452,1.40949226 24.3559328,2.38288659 C24.1847379,2.47725688 24.0053148,2.57709848 23.7605095,2.71399857 C23.4490845,2.88831826 23.2715968,2.98766117 23.123215,3.0704786 C22.5784882,3.37451098 22.152563,3.60855141 21.7108358,3.84473623 C20.5399219,4.47080616 19.4308221,5.01606421 18.2420139,5.53602344 C17.0838592,6.0425755 15.8830933,6.50922038 14.610819,6.94009363 C12.250728,7.73937106 8.27739042,8.61282199 2.66333118,9.57154924 Z" id="Rectangle-53" stroke="#362F2A" stroke-width="2"></path>
                <rect id="Rectangle-54" fill="#362F2A" transform="translate(39.300344, 22.988358) scale(-1, 1) rotate(-330.000000) translate(-39.300344, -22.988358) " x="21.0556782" y="21.9883584" width="36.489332" height="2" rx="1"></rect>
                <rect id="Rectangle-54-Copy-2" fill="#362F2A" transform="translate(18.720671, 34.725481) scale(-1, 1) rotate(-330.000000) translate(-18.720671, -34.725481) " x="15.0017605" y="33.7254806" width="7.43782081" height="2" rx="1"></rect>
                <rect id="Rectangle-54-Copy-3" fill="#362F2A" transform="translate(28.440022, 42.986098) scale(-1, 1) rotate(-330.000000) translate(-28.440022, -42.986098) " x="26.1998775" y="41.9860978" width="4.48028939" height="2" rx="1"></rect>
                <rect id="Rectangle-54-Copy" fill="#362F2A" transform="translate(43.196710, 34.571475) scale(-1, 1) rotate(-330.000000) translate(-43.196710, -34.571475) " x="29.7858121" y="33.5714746" width="26.8217968" height="2" rx="1"></rect>
            </g>
        </g>
    </g>
</svg>